<mxfile host="app.diagrams.net" modified="2023-12-03T15:40:15.140Z" agent="Mozilla/5.0 (Windows NT 10.0; Win64; x64) AppleWebKit/537.36 (KHTML, like Gecko) Chrome/119.0.0.0 Safari/537.36" etag="4ItLZvnagzYShNAmxwjk" version="22.1.5" type="device">
  <diagram name="Сторінка-1" id="-YV25u2zIO_7Dt_ou_bd">
    <mxGraphModel dx="1235" dy="675" grid="1" gridSize="10" guides="1" tooltips="1" connect="1" arrows="1" fold="1" page="1" pageScale="1" pageWidth="827" pageHeight="1169" math="0" shadow="0">
      <root>
        <mxCell id="0" />
        <mxCell id="1" parent="0" />
        <mxCell id="nC2iirkXE4w17PDoo712-3" value="AR Glasses" style="text;html=1;strokeColor=none;fillColor=none;align=center;verticalAlign=middle;whiteSpace=wrap;rounded=0;fontStyle=1" vertex="1" parent="1">
          <mxGeometry x="450" y="130" width="80" height="30" as="geometry" />
        </mxCell>
        <mxCell id="nC2iirkXE4w17PDoo712-4" value="" style="endArrow=none;html=1;rounded=0;exitX=1;exitY=0.5;exitDx=0;exitDy=0;entryX=0.015;entryY=0.408;entryDx=0;entryDy=0;entryPerimeter=0;" edge="1" parent="1">
          <mxGeometry width="50" height="50" relative="1" as="geometry">
            <mxPoint x="530" y="180" as="sourcePoint" />
            <mxPoint x="651.2" y="180.27999999999997" as="targetPoint" />
          </mxGeometry>
        </mxCell>
        <mxCell id="nC2iirkXE4w17PDoo712-5" value="Self-created OS" style="rounded=0;whiteSpace=wrap;html=1;" vertex="1" parent="1">
          <mxGeometry x="650" y="50" width="80" height="160" as="geometry" />
        </mxCell>
        <mxCell id="nC2iirkXE4w17PDoo712-7" value="" style="endArrow=none;html=1;rounded=0;exitX=1;exitY=0.5;exitDx=0;exitDy=0;entryX=0.015;entryY=0.408;entryDx=0;entryDy=0;entryPerimeter=0;" edge="1" parent="1">
          <mxGeometry width="50" height="50" relative="1" as="geometry">
            <mxPoint x="528.8" y="270" as="sourcePoint" />
            <mxPoint x="650" y="270.28" as="targetPoint" />
          </mxGeometry>
        </mxCell>
        <mxCell id="nC2iirkXE4w17PDoo712-8" value="Computer sight" style="rounded=0;whiteSpace=wrap;html=1;" vertex="1" parent="1">
          <mxGeometry x="650" y="230" width="80" height="160" as="geometry" />
        </mxCell>
        <mxCell id="nC2iirkXE4w17PDoo712-11" value="" style="endArrow=none;html=1;rounded=0;entryX=0;entryY=0.5;entryDx=0;entryDy=0;exitX=1;exitY=0.25;exitDx=0;exitDy=0;" edge="1" parent="1">
          <mxGeometry width="50" height="50" relative="1" as="geometry">
            <mxPoint x="380" y="362.5" as="sourcePoint" />
            <mxPoint x="450" y="310" as="targetPoint" />
          </mxGeometry>
        </mxCell>
        <mxCell id="nC2iirkXE4w17PDoo712-12" value="AREG Database" style="text;html=1;strokeColor=none;fillColor=none;align=center;verticalAlign=middle;whiteSpace=wrap;rounded=0;fontStyle=1" vertex="1" parent="1">
          <mxGeometry x="300" y="300" width="80" height="30" as="geometry" />
        </mxCell>
        <mxCell id="nC2iirkXE4w17PDoo712-16" value="" style="rounded=0;whiteSpace=wrap;html=1;fillColor=#454545;fontColor=#333333;strokeColor=#666666;gradientColor=none;" vertex="1" parent="1">
          <mxGeometry x="150" y="480" width="80" height="130" as="geometry" />
        </mxCell>
        <mxCell id="nC2iirkXE4w17PDoo712-17" value="" style="rounded=1;whiteSpace=wrap;html=1;fillColor=#454545;fontColor=#333333;strokeColor=#666666;gradientColor=none;" vertex="1" parent="1">
          <mxGeometry x="150" y="620" width="80" height="20" as="geometry" />
        </mxCell>
        <mxCell id="nC2iirkXE4w17PDoo712-18" value="AGER Server" style="text;html=1;strokeColor=none;fillColor=none;align=center;verticalAlign=middle;whiteSpace=wrap;rounded=0;fontStyle=1" vertex="1" parent="1">
          <mxGeometry x="150" y="450" width="80" height="30" as="geometry" />
        </mxCell>
        <mxCell id="nC2iirkXE4w17PDoo712-19" value="" style="endArrow=none;html=1;rounded=0;entryX=0;entryY=0.5;entryDx=0;entryDy=0;exitX=1;exitY=0.25;exitDx=0;exitDy=0;" edge="1" parent="1">
          <mxGeometry width="50" height="50" relative="1" as="geometry">
            <mxPoint x="230" y="533" as="sourcePoint" />
            <mxPoint x="300" y="480" as="targetPoint" />
          </mxGeometry>
        </mxCell>
        <mxCell id="nC2iirkXE4w17PDoo712-20" value="" style="endArrow=none;html=1;rounded=0;exitX=1;exitY=0.5;exitDx=0;exitDy=0;entryX=0.015;entryY=0.408;entryDx=0;entryDy=0;entryPerimeter=0;" edge="1" parent="1">
          <mxGeometry width="50" height="50" relative="1" as="geometry">
            <mxPoint x="380" y="440" as="sourcePoint" />
            <mxPoint x="501.2" y="440.28" as="targetPoint" />
          </mxGeometry>
        </mxCell>
        <mxCell id="nC2iirkXE4w17PDoo712-21" value="SQL" style="rounded=0;whiteSpace=wrap;html=1;" vertex="1" parent="1">
          <mxGeometry x="500" y="410" width="80" height="160" as="geometry" />
        </mxCell>
        <mxCell id="nC2iirkXE4w17PDoo712-23" value="" style="rounded=0;whiteSpace=wrap;html=1;fillColor=#454545;fontColor=#333333;strokeColor=#666666;gradientColor=none;" vertex="1" parent="1">
          <mxGeometry x="300" y="330" width="80" height="130" as="geometry" />
        </mxCell>
        <mxCell id="nC2iirkXE4w17PDoo712-24" value="" style="rounded=1;whiteSpace=wrap;html=1;fillColor=#454545;fontColor=#333333;strokeColor=#666666;gradientColor=none;" vertex="1" parent="1">
          <mxGeometry x="300" y="470" width="80" height="20" as="geometry" />
        </mxCell>
        <mxCell id="nC2iirkXE4w17PDoo712-25" value="" style="rounded=0;whiteSpace=wrap;html=1;fillColor=#454545;fontColor=#333333;strokeColor=#666666;gradientColor=none;" vertex="1" parent="1">
          <mxGeometry x="450" y="160" width="80" height="130" as="geometry" />
        </mxCell>
        <mxCell id="nC2iirkXE4w17PDoo712-26" value="" style="rounded=1;whiteSpace=wrap;html=1;fillColor=#454545;fontColor=#333333;strokeColor=#666666;gradientColor=none;" vertex="1" parent="1">
          <mxGeometry x="450" y="300" width="80" height="20" as="geometry" />
        </mxCell>
      </root>
    </mxGraphModel>
  </diagram>
</mxfile>
